<svg xmlns="http://www.w3.org/2000/svg" xmlns:xlink="http://www.w3.org/1999/xlink" width="500" zoomAndPan="magnify" viewBox="0 0 375 374.999991" height="500" preserveAspectRatio="xMidYMid meet" version="1.0"><defs><clipPath id="cb943cc8e3"><path d="M 17.328125 25.871094 L 357.671875 25.871094 L 357.671875 366.214844 L 17.328125 366.214844 Z M 17.328125 25.871094 " clip-rule="nonzero"/></clipPath><clipPath id="233f33a430"><path d="M 187.5 25.871094 C 93.515625 25.871094 17.328125 102.058594 17.328125 196.042969 C 17.328125 290.023438 93.515625 366.214844 187.5 366.214844 C 281.484375 366.214844 357.671875 290.023438 357.671875 196.042969 C 357.671875 102.058594 281.484375 25.871094 187.5 25.871094 Z M 187.5 25.871094 " clip-rule="nonzero"/></clipPath></defs><rect x="-37.5" width="450" fill="#ffffff" y="-37.499999" height="449.999989" fill-opacity="1"/><rect x="-37.5" width="450" fill="#ffffff" y="-37.499999" height="449.999989" fill-opacity="1"/><path fill="#4084f4" d="M 176.472656 370.828125 L 169.035156 370.828125 C 167.742188 370.828125 166.699219 369.78125 166.699219 368.496094 L 166.699219 356.820312 L 178.808594 356.820312 L 178.808594 368.496094 C 178.808594 369.78125 177.761719 370.828125 176.472656 370.828125 " fill-opacity="1" fill-rule="nonzero"/><path fill="#4084f4" d="M 204.839844 370.828125 L 197.40625 370.828125 C 196.113281 370.828125 195.066406 369.78125 195.066406 368.496094 L 195.066406 356.820312 L 207.175781 356.820312 L 207.175781 368.496094 C 207.175781 369.78125 206.132812 370.828125 204.839844 370.828125 " fill-opacity="1" fill-rule="nonzero"/><path fill="#4084f4" d="M 314.425781 103.835938 C 271.015625 100.597656 248.046875 122.8125 238.042969 136.71875 C 234.148438 142.136719 227.039062 144.015625 220.921875 141.34375 C 213.914062 138.277344 206.679688 136.4375 200.742188 135.335938 C 194.714844 134.214844 189.71875 129.996094 187.527344 124.265625 C 185.335938 129.996094 180.34375 134.214844 174.308594 135.335938 C 168.375 136.4375 161.140625 138.277344 154.128906 141.34375 C 148.015625 144.015625 140.90625 142.136719 137.011719 136.71875 C 127.011719 122.8125 104.035156 100.597656 60.628906 103.835938 C 60.628906 103.835938 108.257812 131.386719 100.789062 191.160156 L 126.003906 174.820312 L 153.085938 172.484375 L 178.304688 186.957031 L 187.527344 193.265625 L 196.75 186.957031 L 221.96875 172.484375 L 249.050781 174.820312 L 274.265625 191.160156 C 266.792969 131.386719 314.425781 103.835938 314.425781 103.835938 " fill-opacity="1" fill-rule="nonzero"/><path fill="#918f8f" d="M 230.496094 280.539062 C 214.199219 280.539062 198.941406 274.226562 187.527344 262.980469 C 176.113281 274.226562 160.855469 280.539062 144.558594 280.539062 C 129.960938 280.539062 116.546875 275.40625 106 266.863281 C 105.121094 271.453125 104.632812 276.175781 104.632812 281.007812 C 104.632812 324.230469 141.480469 359.269531 186.9375 359.269531 C 232.390625 359.269531 269.242188 324.230469 269.242188 281.007812 C 269.242188 276.460938 268.808594 272.007812 268.027344 267.671875 C 257.644531 275.726562 244.625 280.539062 230.496094 280.539062 " fill-opacity="1" fill-rule="nonzero"/><path fill="#4084f4" d="M 289.207031 237.011719 C 285.464844 249.304688 277.953125 259.96875 268.027344 267.671875 C 268.808594 272.007812 269.242188 276.460938 269.242188 281.007812 C 269.242188 307.171875 255.730469 330.3125 234.996094 344.523438 C 271.179688 330.492188 296.089844 301.128906 296.089844 267.160156 C 296.089844 256.550781 293.644531 246.398438 289.207031 237.011719 " fill-opacity="1" fill-rule="nonzero"/><path fill="#4084f4" d="M 104.632812 281.007812 C 104.632812 276.175781 105.121094 271.453125 106 266.863281 C 96.1875 258.914062 88.875 248.003906 85.421875 235.507812 C 80.511719 245.308594 77.78125 255.980469 77.78125 267.160156 C 77.78125 301.128906 102.695312 330.492188 138.878906 344.523438 C 118.144531 330.3125 104.632812 307.171875 104.632812 281.007812 " fill-opacity="1" fill-rule="nonzero"/><path fill="#4084f4" d="M 229.941406 257.359375 C 208.859375 257.359375 191.765625 240.265625 191.765625 219.179688 C 191.765625 198.097656 208.859375 181.007812 229.941406 181.007812 C 251.027344 181.007812 268.117188 198.097656 268.117188 219.179688 C 268.117188 240.265625 251.027344 257.359375 229.941406 257.359375 Z M 145.113281 257.359375 C 124.027344 257.359375 106.9375 240.265625 106.9375 219.179688 C 106.9375 198.097656 124.027344 181.007812 145.113281 181.007812 C 166.199219 181.007812 183.289062 198.097656 183.289062 219.179688 C 183.289062 240.265625 166.199219 257.359375 145.113281 257.359375 Z M 230.496094 164.824219 C 213.011719 164.824219 197.472656 173.082031 187.527344 185.910156 C 177.585938 173.082031 162.039062 164.824219 144.558594 164.824219 C 114.539062 164.824219 90.207031 189.160156 90.207031 219.179688 C 90.207031 249.199219 114.539062 273.535156 144.558594 273.535156 C 162.039062 273.535156 177.585938 265.273438 187.527344 252.453125 C 197.472656 265.273438 213.011719 273.535156 230.496094 273.535156 C 260.515625 273.535156 284.847656 249.199219 284.847656 219.179688 C 284.847656 189.160156 260.515625 164.824219 230.496094 164.824219 " fill-opacity="1" fill-rule="nonzero"/><path fill="#4084f4" d="M 187.527344 329.3125 L 171.425781 301.421875 L 158.460938 278.964844 C 168.742188 275.027344 178.453125 269.757812 187.527344 262.980469 C 196.40625 269.980469 206.125 275.25 216.589844 278.96875 L 203.628906 301.421875 L 187.527344 329.3125 " fill-opacity="1" fill-rule="nonzero"/><path fill="#ffffff" d="M 187.527344 275.21875 C 187.527344 275.21875 182.210938 299.207031 187.527344 321.96875 C 192.839844 299.207031 187.527344 275.21875 187.527344 275.21875 " fill-opacity="1" fill-rule="nonzero"/><path fill="#4084f4" d="M 229.941406 196.339844 C 229.355469 196.339844 228.777344 196.382812 228.207031 196.429688 C 229.308594 198.570312 229.941406 200.992188 229.941406 203.566406 C 229.941406 212.191406 222.953125 219.179688 214.324219 219.179688 C 211.753906 219.179688 209.328125 218.550781 207.1875 217.445312 C 207.144531 218.019531 207.101562 218.59375 207.101562 219.179688 C 207.101562 231.792969 217.328125 242.023438 229.941406 242.023438 C 242.558594 242.023438 252.78125 231.792969 252.78125 219.179688 C 252.78125 206.566406 242.558594 196.339844 229.941406 196.339844 Z M 145.113281 196.339844 C 144.1875 196.339844 143.277344 196.410156 142.378906 196.519531 C 143.453125 198.640625 144.070312 201.023438 144.070312 203.566406 C 144.070312 212.191406 137.078125 219.179688 128.453125 219.179688 C 126.28125 219.179688 124.214844 218.734375 122.335938 217.933594 C 122.3125 218.347656 122.273438 218.761719 122.273438 219.179688 C 122.273438 231.792969 132.5 242.023438 145.113281 242.023438 C 157.726562 242.023438 167.953125 231.792969 167.953125 219.179688 C 167.953125 206.566406 157.726562 196.339844 145.113281 196.339844 " fill-opacity="1" fill-rule="nonzero"/><path fill="#4084f4" d="M 187.527344 8.425781 C 88.769531 8.425781 8.425781 88.773438 8.425781 187.527344 C 8.425781 286.28125 88.769531 366.628906 187.527344 366.628906 C 286.28125 366.628906 366.628906 286.28125 366.628906 187.527344 C 366.628906 88.773438 286.28125 8.425781 187.527344 8.425781 Z M 187.527344 375.035156 C 84.136719 375.035156 0.0195312 290.914062 0.0195312 187.527344 C 0.0195312 84.140625 84.136719 0.0195312 187.527344 0.0195312 C 290.914062 0.0195312 375.035156 84.140625 375.035156 187.527344 C 375.035156 290.914062 290.914062 375.035156 187.527344 375.035156 " fill-opacity="1" fill-rule="nonzero"/><g clip-path="url(#cb943cc8e3)"><g clip-path="url(#233f33a430)"><path fill="#ffffff" d="M 17.328125 25.871094 L 357.671875 25.871094 L 357.671875 366.214844 L 17.328125 366.214844 Z M 17.328125 25.871094 " fill-opacity="1" fill-rule="nonzero"/></g></g><path fill="#4084f4" d="M 105.277344 166.5625 C 105.277344 166.5625 121.035156 214.246094 166.34375 183.230469 C 166.34375 183.230469 155.703125 115.222656 105.277344 166.5625 Z M 105.277344 166.5625 " fill-opacity="1" fill-rule="nonzero"/><path fill="#4084f4" d="M 194.113281 252.65625 C 219.097656 213.789062 195.484375 189.71875 195.484375 189.71875 C 165.429688 213.332031 194.113281 252.65625 194.113281 252.65625 Z M 194.113281 252.65625 " fill-opacity="1" fill-rule="nonzero"/><path fill="#4084f4" d="M 223.253906 184.601562 C 223.253906 184.601562 267.695312 218.402344 282.996094 167.019531 C 282.996094 167.019531 243.167969 120.75 223.253906 184.601562 Z M 223.253906 184.601562 " fill-opacity="1" fill-rule="nonzero"/><path fill="#4084f4" d="M 322.734375 218.402344 C 331.550781 192.457031 371.148438 57.671875 207.679688 37.621094 C 147.480469 30.222656 73.214844 54.886719 53.484375 125.226562 C 33.707031 195.5625 63.347656 222.738281 54.671875 241.238281 C 53.070312 244.664062 48.960938 250.96875 43.390625 259.964844 C 72.574219 310.664062 127.339844 344.785156 190.050781 344.785156 C 246.183594 344.785156 295.875 317.46875 326.664062 275.402344 C 321.316406 252.519531 318.074219 232.195312 322.734375 218.402344 Z M 197.859375 262.84375 C 45.125 259.097656 40.511719 123.078125 103.40625 99.054688 C 166.34375 74.9375 195.027344 123.992188 195.027344 123.992188 L 201.511719 122.164062 C 201.511719 122.164062 232.984375 74.023438 279.253906 92.523438 C 325.566406 111.066406 350.550781 266.542969 197.859375 262.84375 Z M 197.859375 262.84375 " fill-opacity="1" fill-rule="nonzero"/></svg>