<svg xmlns="http://www.w3.org/2000/svg" xmlns:xlink="http://www.w3.org/1999/xlink" width="500" zoomAndPan="magnify" viewBox="0 0 375 374.999991" height="500" preserveAspectRatio="xMidYMid meet" version="1.0"><defs><clipPath id="27b256f854"><path d="M 57 114.324219 L 292 114.324219 L 292 268 L 57 268 Z M 57 114.324219 " clip-rule="nonzero"/></clipPath><clipPath id="4a56c59676"><path d="M 93 114.324219 L 328 114.324219 L 328 268 L 93 268 Z M 93 114.324219 " clip-rule="nonzero"/></clipPath><clipPath id="5499482d25"><path d="M 178 252 L 207 252 L 207 284.574219 L 178 284.574219 Z M 178 252 " clip-rule="nonzero"/></clipPath></defs><g clip-path="url(#27b256f854)"><path fill="#3a81f2" d="M 64.382812 114.636719 C 84.117188 114.371094 103.871094 114.714844 123.621094 114.574219 C 134.914062 114.308594 146.523438 115.546875 156.847656 120.394531 C 168.375 125.210938 178.054688 133.527344 186.136719 142.9375 C 197.871094 154.875 208.363281 168.007812 220.601562 179.457031 C 225.714844 166.125 237.292969 154.046875 252.226562 153.136719 C 270.441406 151.128906 287.351562 165.875 290.597656 183.332031 C 295.039062 202.519531 282.613281 224.433594 263.019531 228.75 C 251.097656 231.480469 238.1875 227.414062 229.886719 218.472656 C 208.742188 195.679688 187.609375 172.871094 166.542969 150.027344 C 155.828125 139.34375 140.390625 133.195312 125.21875 135.015625 C 108.636719 136.144531 93.59375 146.578125 85.152344 160.648438 C 71.019531 183.460938 74.972656 216.027344 95.101562 234.050781 C 111.164062 249.707031 138.035156 252.5625 156.878906 240.265625 C 162.242188 237.394531 165.835938 232.199219 170.839844 228.9375 C 175.703125 232.890625 179.59375 237.910156 183.171875 243.007812 C 170.902344 256.863281 153.410156 266.585938 134.757812 267.6875 C 114.820312 269.300781 94.457031 261.269531 81.089844 246.367188 C 68.558594 234.523438 60.335938 218.097656 58.59375 200.917969 C 55.722656 180.667969 61.75 159.613281 74.03125 143.363281 C 75.066406 141.511719 77.765625 139.425781 75.789062 137.242188 C 71.316406 131.03125 66.421875 125.101562 61.574219 119.171875 C 62.515625 117.648438 63.441406 116.144531 64.382812 114.636719 M 251.285156 173.433594 C 236.398438 176.730469 233.464844 199.003906 246.0625 206.929688 C 256.023438 214.222656 271.304688 206.457031 272.308594 194.425781 C 274.878906 182.660156 263.363281 169.890625 251.285156 173.433594 Z M 251.285156 173.433594 " fill-opacity="1" fill-rule="nonzero"/></g><g clip-path="url(#4a56c59676)"><path fill="#3a81f2" d="M 202.230469 139.675781 C 215.015625 123.972656 235.113281 114.777344 255.300781 114.574219 C 279.019531 114.621094 302.757812 114.355469 326.476562 114.839844 C 321.332031 123.171875 314.050781 129.949219 308.859375 138.246094 C 308.453125 140.664062 310.726562 142.421875 311.792969 144.367188 C 324.703125 161.527344 330.132812 184.210938 326.085938 205.3125 C 322.648438 226.113281 310.253906 245.316406 292.589844 256.878906 C 280.105469 264.59375 265.308594 269.097656 250.546875 267.703125 C 232.003906 266.539062 214.53125 256.941406 202.417969 243.039062 C 192.992188 232.46875 182.792969 222.632812 173.492188 211.949219 C 170.777344 208.792969 167.890625 205.796875 164.660156 203.179688 C 161.175781 211.839844 155.765625 220.246094 147.339844 224.78125 C 137.144531 230.914062 123.621094 231.148438 113.265625 225.25 C 100.746094 218.410156 93.484375 203.945312 93.96875 189.890625 C 94.566406 170.59375 111.460938 151.878906 131.496094 153.167969 C 143.152344 153.007812 152.734375 160.804688 160.125 169.011719 C 179.359375 190.03125 198.652344 210.992188 218.167969 231.761719 C 226.484375 240.890625 238.296875 246.539062 250.546875 247.761719 C 266.425781 249.128906 282.800781 242.820312 293.375 230.851562 C 311.386719 211.804688 313.457031 180.382812 298.976562 158.71875 C 290.753906 146.074219 276.980469 136.726562 261.84375 135.109375 C 248.476562 133.382812 234.390625 137.117188 223.910156 145.652344 C 220.726562 148.289062 217.730469 151.144531 214.640625 153.871094 C 210.480469 149.277344 204.503906 145.480469 202.230469 139.675781 M 125.894531 173.417969 C 121.582031 174.707031 117.628906 177.464844 115.414062 181.433594 C 109.800781 190.472656 113.265625 204.527344 123.621094 208.417969 C 133.15625 212.90625 145.082031 205.765625 146.789062 195.617188 C 150.398438 183.539062 138.460938 169.734375 125.894531 173.417969 Z M 125.894531 173.417969 " fill-opacity="1" fill-rule="nonzero"/></g><g clip-path="url(#5499482d25)"><path fill="#3a81f2" d="M 178.808594 266.808594 C 183.296875 261.914062 187.734375 256.957031 192.660156 252.484375 C 197.617188 257.035156 201.996094 262.164062 206.527344 267.121094 C 202.371094 273.316406 197.664062 279.105469 192.707031 284.675781 C 187.6875 279.027344 182.855469 273.191406 178.808594 266.808594 Z M 178.808594 266.808594 " fill-opacity="1" fill-rule="nonzero"/></g></svg>